<svg xmlns="http://www.w3.org/2000/svg" viewBox="0 0 171.57 187.44"><title>logo</title><path d="M1044,529.77c-1.9-10.66-7.68-18.88-16.46-25.09a2.6,2.6,0,0,1-1-1.55,57.59,57.59,0,0,0-11.75-29.48c-10.1-13.06-23.4-20.76-39.81-22.67a121.77,121.77,0,0,0-16.77-.42,66.65,66.65,0,0,0-12.37,1.28c-16.53,3.52-29.2,12.68-38.11,27a54.52,54.52,0,0,0-7.61,20.78c-.36,2.35-.21,5-3.08,6.16a.39.39,0,0,0-.1.08Q878,520.76,882.14,544.45a38,38,0,0,0,4,11.26l-.94,1a40.73,40.73,0,0,0-7.93,11.77c-4.29,10.13-3.93,20,2.21,29.28,4.21,6.37,10.24,10.45,17.37,13a49.86,49.86,0,0,0,24,2.07c2.27-.32,4.53-.8,7.16-1.27a65.54,65.54,0,0,1-13.47-11.88,2.32,2.32,0,0,1,.47-.17,68.21,68.21,0,0,0,21.76-5.89c3-1.27,4.43-2.92,4.91-6.36a21.51,21.51,0,0,1,33.41-14.86,21.64,21.64,0,0,1-8.93,39.34,21.15,21.15,0,0,1-17.47-5.2c-2-1.71-2.87-1.75-5.31-.72-3.79,1.6-7.63,3.07-11.47,4.54-1.17.45-2.39.75-3.73,1.15.34.26.55.44.78.58a62.49,62.49,0,0,0,27.75,9.48c16.2,1.48,30.93-2.45,44-12.09,12.76-9.38,20.8-21.9,24.49-37.27a2.89,2.89,0,0,1,1.07-1.56,41.17,41.17,0,0,0,10.21-9.71C1043.36,551.59,1046,541.19,1044,529.77Zm-129.82,70c-2.42-.14-4.85-.12-7.24-.44-5.81-.76-10.92-3-14.83-7.53-4.21-4.91-5.09-10.42-2.89-16.46a26.11,26.11,0,0,1,5.43-8.56,19.85,19.85,0,0,0,2.85,2.25c2.4,1.29,3.35,3.29,4,5.89a60.57,60.57,0,0,0,12,23.49c.27.33.52.66.78,1Zm103.57-38c-7.69,4.35-15.84,4.63-24.15,2.18a31.51,31.51,0,0,1-19.27-15.49,24.9,24.9,0,0,0-4.18-5.5c-4.41-4.39-10.11-4.31-14.41.18a35.1,35.1,0,0,0-4.26,5.77c-6.58,10.64-16.18,16-28.59,16.52a27.48,27.48,0,0,1-16.22-4.59,29.1,29.1,0,0,1-9.52-39,23.37,23.37,0,0,1,17.13-11.3,65.63,65.63,0,0,1,9.92-.54c13-.05,26,0,39,0V510c14.92,0,29.84-.28,44.74.08,13.28.33,22.54,9,24.33,21.51C1034.09,544.3,1028.66,555.56,1017.77,561.72Z" transform="translate(-874.4 -434.42)"/><path d="M962.84,579.26a11.08,11.08,0,1,1-10.93,11.44A11.08,11.08,0,0,1,962.84,579.26Z" transform="translate(-874.4 -434.42)"/><path d="M1037.26,460.45a9,9,0,1,1-9-9A8.94,8.94,0,0,1,1037.26,460.45Z" transform="translate(-874.4 -434.42)"/><path d="M1046,481.85a5.8,5.8,0,1,1-5.74-5.86A5.8,5.8,0,0,1,1046,481.85Z" transform="translate(-874.4 -434.42)"/><path d="M1040.88,434.42a5.06,5.06,0,1,1-5.22,4.85A5.06,5.06,0,0,1,1040.88,434.42Z" transform="translate(-874.4 -434.42)"/><path d="M934.27,516.54q-10.77,16.51-21.62,33c-1.22,1.87-2.43,3.74-3.66,5.6-.87,1.31-1.58,1.3-2.8.3a24.55,24.55,0,0,1-6.19-7.69,4.13,4.13,0,0,1,.25-4.6q8.65-13.1,17.22-26.25a5.65,5.65,0,0,1,5.57-3c1.43.11,2.87,0,4.31,0h0c1.84,0,3.68-.07,5.52,0a2.31,2.31,0,0,1,1.65.85A2,2,0,0,1,934.27,516.54Z" transform="translate(-874.4 -434.42)"/><path d="M950.45,516.41c-1.84,2.86-3.73,5.67-5.59,8.51-7.5,11.42-15,22.83-22.46,34.29-1.14,1.77-2.44,2.17-4.72,1.74-.62-.12-1.23-.32-1.85-.45-1.27-.26-1.74-1.22-1-2.29q4.23-6.53,8.5-13c6.2-9.45,12.47-18.86,18.59-28.37,1.36-2.12,2.87-3.38,5.46-2.9.6,0,1.2,0,1.8,0C950.68,514,951.28,515.11,950.45,516.41Z" transform="translate(-874.4 -434.42)"/><path d="M1028.74,536.32a25,25,0,0,1-18.8,24.32c-.71.18-1.56.47-1.89-.38a2.33,2.33,0,0,1,.33-1.81q8.57-13.16,17.21-26.26c.15-.23.26-.54.48-.68.44-.26,1-.64,1.39-.57s.8.68.87,1.09C1028.55,533.45,1028.61,534.89,1028.74,536.32Z" transform="translate(-874.4 -434.42)"/></svg>